<svg xmlns="http://www.w3.org/2000/svg" xmlns:xlink="http://www.w3.org/1999/xlink" width="600" zoomAndPan="magnify" viewBox="0 0 450 67.499998" height="90" preserveAspectRatio="xMidYMid meet" version="1.0"><defs><g/><clipPath id="43bb4216e8"><path d="M 2.796875 1.300781 L 254.9375 1.300781 L 254.9375 13.171875 L 2.796875 13.171875 Z M 2.796875 1.300781 " clip-rule="nonzero"/></clipPath><clipPath id="23c0fd0da5"><path d="M 262.113281 53.472656 L 341.382812 53.472656 L 341.382812 65.703125 L 262.113281 65.703125 Z M 262.113281 53.472656 " clip-rule="nonzero"/></clipPath><clipPath id="4de07ddb5a"><path d="M 2.796875 10.375 L 254.9375 10.375 L 254.9375 13.171875 L 2.796875 13.171875 Z M 2.796875 10.375 " clip-rule="nonzero"/></clipPath><clipPath id="7cf646e030"><path d="M 262.113281 53.472656 L 341.382812 53.472656 L 341.382812 56.261719 L 262.113281 56.261719 Z M 262.113281 53.472656 " clip-rule="nonzero"/></clipPath></defs><g clip-path="url(#43bb4216e8)"><path fill="#4cff20" d="M 2.796875 1.300781 L 254.933594 1.300781 L 254.933594 13.171875 L 2.796875 13.171875 Z M 2.796875 1.300781 " fill-opacity="1" fill-rule="nonzero"/></g><g clip-path="url(#23c0fd0da5)"><path fill="#ede7e7" d="M 262.113281 53.472656 L 341.386719 53.472656 L 341.386719 65.703125 L 262.113281 65.703125 Z M 262.113281 53.472656 " fill-opacity="1" fill-rule="nonzero"/></g><g fill="#ff00ff" fill-opacity="1"><g transform="translate(0.318368, 49.751637)"><g><path d="M 17.984375 0 L 17.984375 -28.78125 L 3.59375 -28.78125 L 3.59375 -35.984375 L 39.578125 -35.984375 L 39.578125 -28.78125 L 25.1875 -28.78125 L 25.1875 0 Z M 17.984375 0 "/></g></g></g><g fill="#ff00ff" fill-opacity="1"><g transform="translate(43.496891, 49.751637)"><g><path d="M 3.59375 0 L 3.59375 -28.78125 L 10.796875 -28.78125 L 10.796875 -14.390625 L 32.390625 -14.390625 L 32.390625 -28.78125 L 39.578125 -28.78125 L 39.578125 0 L 32.390625 0 L 32.390625 -7.203125 L 10.796875 -7.203125 L 10.796875 0 Z M 10.796875 -28.78125 L 10.796875 -35.984375 L 32.390625 -35.984375 L 32.390625 -28.78125 Z M 10.796875 -28.78125 "/></g></g></g><g fill="#ff00ff" fill-opacity="1"><g transform="translate(86.675414, 49.751637)"><g><path d="M 3.59375 0 L 3.59375 -35.984375 L 32.390625 -35.984375 L 32.390625 -28.78125 L 10.796875 -28.78125 L 10.796875 -14.390625 L 32.390625 -14.390625 L 32.390625 -7.203125 L 10.796875 -7.203125 L 10.796875 0 Z M 32.390625 0 L 32.390625 -7.203125 L 39.578125 -7.203125 L 39.578125 0 Z M 32.390625 -14.390625 L 32.390625 -28.78125 L 39.578125 -28.78125 L 39.578125 -14.390625 Z M 32.390625 -14.390625 "/></g></g></g><g fill="#ff00ff" fill-opacity="1"><g transform="translate(129.853937, 49.751637)"><g><path d="M 17.984375 0 L 17.984375 -28.78125 L 3.59375 -28.78125 L 3.59375 -35.984375 L 39.578125 -35.984375 L 39.578125 -28.78125 L 25.1875 -28.78125 L 25.1875 0 Z M 17.984375 0 "/></g></g></g><g fill="#ff00ff" fill-opacity="1"><g transform="translate(173.03246, 49.751637)"><g><path d="M 3.59375 0 L 3.59375 -28.78125 L 10.796875 -28.78125 L 10.796875 -14.390625 L 32.390625 -14.390625 L 32.390625 -28.78125 L 39.578125 -28.78125 L 39.578125 0 L 32.390625 0 L 32.390625 -7.203125 L 10.796875 -7.203125 L 10.796875 0 Z M 10.796875 -28.78125 L 10.796875 -35.984375 L 32.390625 -35.984375 L 32.390625 -28.78125 Z M 10.796875 -28.78125 "/></g></g></g><g fill="#ff00ff" fill-opacity="1"><g transform="translate(216.210983, 49.751637)"><g><path d="M 3.59375 0 L 3.59375 -35.984375 L 32.390625 -35.984375 L 32.390625 -28.78125 L 10.796875 -28.78125 L 10.796875 -14.390625 L 32.390625 -14.390625 L 32.390625 -7.203125 L 10.796875 -7.203125 L 10.796875 0 Z M 32.390625 0 L 32.390625 -7.203125 L 39.578125 -7.203125 L 39.578125 0 Z M 32.390625 -14.390625 L 32.390625 -28.78125 L 39.578125 -28.78125 L 39.578125 -14.390625 Z M 32.390625 -14.390625 "/></g></g></g><g fill="#00ffff" fill-opacity="1"><g transform="translate(-0.976745, 51.745938)"><g><path d="M 17.984375 0 L 17.984375 -28.78125 L 3.59375 -28.78125 L 3.59375 -35.984375 L 39.578125 -35.984375 L 39.578125 -28.78125 L 25.1875 -28.78125 L 25.1875 0 Z M 17.984375 0 "/></g></g></g><g fill="#00ffff" fill-opacity="1"><g transform="translate(42.201778, 51.745938)"><g><path d="M 3.59375 0 L 3.59375 -28.78125 L 10.796875 -28.78125 L 10.796875 -14.390625 L 32.390625 -14.390625 L 32.390625 -28.78125 L 39.578125 -28.78125 L 39.578125 0 L 32.390625 0 L 32.390625 -7.203125 L 10.796875 -7.203125 L 10.796875 0 Z M 10.796875 -28.78125 L 10.796875 -35.984375 L 32.390625 -35.984375 L 32.390625 -28.78125 Z M 10.796875 -28.78125 "/></g></g></g><g fill="#00ffff" fill-opacity="1"><g transform="translate(85.380301, 51.745938)"><g><path d="M 3.59375 0 L 3.59375 -35.984375 L 32.390625 -35.984375 L 32.390625 -28.78125 L 10.796875 -28.78125 L 10.796875 -14.390625 L 32.390625 -14.390625 L 32.390625 -7.203125 L 10.796875 -7.203125 L 10.796875 0 Z M 32.390625 0 L 32.390625 -7.203125 L 39.578125 -7.203125 L 39.578125 0 Z M 32.390625 -14.390625 L 32.390625 -28.78125 L 39.578125 -28.78125 L 39.578125 -14.390625 Z M 32.390625 -14.390625 "/></g></g></g><g fill="#00ffff" fill-opacity="1"><g transform="translate(128.558824, 51.745938)"><g><path d="M 17.984375 0 L 17.984375 -28.78125 L 3.59375 -28.78125 L 3.59375 -35.984375 L 39.578125 -35.984375 L 39.578125 -28.78125 L 25.1875 -28.78125 L 25.1875 0 Z M 17.984375 0 "/></g></g></g><g fill="#00ffff" fill-opacity="1"><g transform="translate(171.737347, 51.745938)"><g><path d="M 3.59375 0 L 3.59375 -28.78125 L 10.796875 -28.78125 L 10.796875 -14.390625 L 32.390625 -14.390625 L 32.390625 -28.78125 L 39.578125 -28.78125 L 39.578125 0 L 32.390625 0 L 32.390625 -7.203125 L 10.796875 -7.203125 L 10.796875 0 Z M 10.796875 -28.78125 L 10.796875 -35.984375 L 32.390625 -35.984375 L 32.390625 -28.78125 Z M 10.796875 -28.78125 "/></g></g></g><g fill="#00ffff" fill-opacity="1"><g transform="translate(214.91587, 51.745938)"><g><path d="M 3.59375 0 L 3.59375 -35.984375 L 32.390625 -35.984375 L 32.390625 -28.78125 L 10.796875 -28.78125 L 10.796875 -14.390625 L 32.390625 -14.390625 L 32.390625 -7.203125 L 10.796875 -7.203125 L 10.796875 0 Z M 32.390625 0 L 32.390625 -7.203125 L 39.578125 -7.203125 L 39.578125 0 Z M 32.390625 -14.390625 L 32.390625 -28.78125 L 39.578125 -28.78125 L 39.578125 -14.390625 Z M 32.390625 -14.390625 "/></g></g></g><g fill="#ede7e7" fill-opacity="1"><g transform="translate(-0.329188, 50.748788)"><g><path d="M 17.984375 0 L 17.984375 -28.78125 L 3.59375 -28.78125 L 3.59375 -35.984375 L 39.578125 -35.984375 L 39.578125 -28.78125 L 25.1875 -28.78125 L 25.1875 0 Z M 17.984375 0 "/></g></g></g><g fill="#ede7e7" fill-opacity="1"><g transform="translate(42.849335, 50.748788)"><g><path d="M 3.59375 0 L 3.59375 -28.78125 L 10.796875 -28.78125 L 10.796875 -14.390625 L 32.390625 -14.390625 L 32.390625 -28.78125 L 39.578125 -28.78125 L 39.578125 0 L 32.390625 0 L 32.390625 -7.203125 L 10.796875 -7.203125 L 10.796875 0 Z M 10.796875 -28.78125 L 10.796875 -35.984375 L 32.390625 -35.984375 L 32.390625 -28.78125 Z M 10.796875 -28.78125 "/></g></g></g><g fill="#ede7e7" fill-opacity="1"><g transform="translate(86.027858, 50.748788)"><g><path d="M 3.59375 0 L 3.59375 -35.984375 L 32.390625 -35.984375 L 32.390625 -28.78125 L 10.796875 -28.78125 L 10.796875 -14.390625 L 32.390625 -14.390625 L 32.390625 -7.203125 L 10.796875 -7.203125 L 10.796875 0 Z M 32.390625 0 L 32.390625 -7.203125 L 39.578125 -7.203125 L 39.578125 0 Z M 32.390625 -14.390625 L 32.390625 -28.78125 L 39.578125 -28.78125 L 39.578125 -14.390625 Z M 32.390625 -14.390625 "/></g></g></g><g fill="#ede7e7" fill-opacity="1"><g transform="translate(129.206381, 50.748788)"><g><path d="M 17.984375 0 L 17.984375 -28.78125 L 3.59375 -28.78125 L 3.59375 -35.984375 L 39.578125 -35.984375 L 39.578125 -28.78125 L 25.1875 -28.78125 L 25.1875 0 Z M 17.984375 0 "/></g></g></g><g fill="#ede7e7" fill-opacity="1"><g transform="translate(172.384904, 50.748788)"><g><path d="M 3.59375 0 L 3.59375 -28.78125 L 10.796875 -28.78125 L 10.796875 -14.390625 L 32.390625 -14.390625 L 32.390625 -28.78125 L 39.578125 -28.78125 L 39.578125 0 L 32.390625 0 L 32.390625 -7.203125 L 10.796875 -7.203125 L 10.796875 0 Z M 10.796875 -28.78125 L 10.796875 -35.984375 L 32.390625 -35.984375 L 32.390625 -28.78125 Z M 10.796875 -28.78125 "/></g></g></g><g fill="#ede7e7" fill-opacity="1"><g transform="translate(215.563427, 50.748788)"><g><path d="M 3.59375 0 L 3.59375 -35.984375 L 32.390625 -35.984375 L 32.390625 -28.78125 L 10.796875 -28.78125 L 10.796875 -14.390625 L 32.390625 -14.390625 L 32.390625 -7.203125 L 10.796875 -7.203125 L 10.796875 0 Z M 32.390625 0 L 32.390625 -7.203125 L 39.578125 -7.203125 L 39.578125 0 Z M 32.390625 -14.390625 L 32.390625 -28.78125 L 39.578125 -28.78125 L 39.578125 -14.390625 Z M 32.390625 -14.390625 "/></g></g></g><g fill="#ff00ff" fill-opacity="1"><g transform="translate(259.39169, 49.751637)"><g><path d="M 32.390625 -7.203125 L 32.390625 0 L 10.796875 0 L 10.796875 -7.203125 Z M 3.59375 -7.203125 L 3.59375 -35.984375 L 10.796875 -35.984375 L 10.796875 -7.203125 Z M 32.390625 -7.203125 L 32.390625 -35.984375 L 39.578125 -35.984375 L 39.578125 -7.203125 Z M 32.390625 -7.203125 "/></g></g></g><g fill="#ff00ff" fill-opacity="1"><g transform="translate(302.570213, 49.751637)"><g><path d="M 10.796875 -28.78125 L 10.796875 -21.59375 L 3.59375 -21.59375 L 3.59375 -28.78125 Z M 3.59375 0 L 3.59375 -7.203125 L 32.390625 -7.203125 L 32.390625 0 Z M 10.796875 -14.390625 L 10.796875 -21.59375 L 32.390625 -21.59375 L 32.390625 -14.390625 Z M 10.796875 -28.78125 L 10.796875 -35.984375 L 39.578125 -35.984375 L 39.578125 -28.78125 Z M 32.390625 -7.203125 L 32.390625 -14.390625 L 39.578125 -14.390625 L 39.578125 -7.203125 Z M 32.390625 -7.203125 "/></g></g></g><g fill="#00ffff" fill-opacity="1"><g transform="translate(258.096577, 51.745938)"><g><path d="M 32.390625 -7.203125 L 32.390625 0 L 10.796875 0 L 10.796875 -7.203125 Z M 3.59375 -7.203125 L 3.59375 -35.984375 L 10.796875 -35.984375 L 10.796875 -7.203125 Z M 32.390625 -7.203125 L 32.390625 -35.984375 L 39.578125 -35.984375 L 39.578125 -7.203125 Z M 32.390625 -7.203125 "/></g></g></g><g fill="#00ffff" fill-opacity="1"><g transform="translate(301.2751, 51.745938)"><g><path d="M 10.796875 -28.78125 L 10.796875 -21.59375 L 3.59375 -21.59375 L 3.59375 -28.78125 Z M 3.59375 0 L 3.59375 -7.203125 L 32.390625 -7.203125 L 32.390625 0 Z M 10.796875 -14.390625 L 10.796875 -21.59375 L 32.390625 -21.59375 L 32.390625 -14.390625 Z M 10.796875 -28.78125 L 10.796875 -35.984375 L 39.578125 -35.984375 L 39.578125 -28.78125 Z M 32.390625 -7.203125 L 32.390625 -14.390625 L 39.578125 -14.390625 L 39.578125 -7.203125 Z M 32.390625 -7.203125 "/></g></g></g><g fill="#4cff20" fill-opacity="1"><g transform="translate(258.744134, 50.748788)"><g><path d="M 32.390625 -7.203125 L 32.390625 0 L 10.796875 0 L 10.796875 -7.203125 Z M 3.59375 -7.203125 L 3.59375 -35.984375 L 10.796875 -35.984375 L 10.796875 -7.203125 Z M 32.390625 -7.203125 L 32.390625 -35.984375 L 39.578125 -35.984375 L 39.578125 -7.203125 Z M 32.390625 -7.203125 "/></g></g></g><g fill="#4cff20" fill-opacity="1"><g transform="translate(301.922657, 50.748788)"><g><path d="M 10.796875 -28.78125 L 10.796875 -21.59375 L 3.59375 -21.59375 L 3.59375 -28.78125 Z M 3.59375 0 L 3.59375 -7.203125 L 32.390625 -7.203125 L 32.390625 0 Z M 10.796875 -14.390625 L 10.796875 -21.59375 L 32.390625 -21.59375 L 32.390625 -14.390625 Z M 10.796875 -28.78125 L 10.796875 -35.984375 L 39.578125 -35.984375 L 39.578125 -28.78125 Z M 32.390625 -7.203125 L 32.390625 -14.390625 L 39.578125 -14.390625 L 39.578125 -7.203125 Z M 32.390625 -7.203125 "/></g></g></g><g clip-path="url(#4de07ddb5a)"><path fill="#146600" d="M 2.796875 10.375 L 254.9375 10.375 L 254.9375 13.171875 L 2.796875 13.171875 Z M 2.796875 10.375 " fill-opacity="1" fill-rule="nonzero"/></g><g clip-path="url(#7cf646e030)"><path fill="#a6a6a6" d="M 262.113281 53.472656 L 341.378906 53.472656 L 341.378906 56.261719 L 262.113281 56.261719 Z M 262.113281 53.472656 " fill-opacity="1" fill-rule="nonzero"/></g></svg>