<svg xmlns="http://www.w3.org/2000/svg" xmlns:xlink="http://www.w3.org/1999/xlink" width="500" zoomAndPan="magnify" viewBox="0 0 375 374.999991" height="500" preserveAspectRatio="xMidYMid meet" version="1.0"><defs><g/><clipPath id="b51c3d079f"><path d="M 0 10.902344 L 365.050781 10.902344 L 365.050781 375 L 0 375 Z M 0 10.902344 " clip-rule="nonzero"/></clipPath><clipPath id="2782705a53"><path d="M 182.527344 10.902344 C 81.71875 10.902344 0 92.621094 0 193.429688 C 0 294.234375 81.71875 375.957031 182.527344 375.957031 C 283.332031 375.957031 365.050781 294.234375 365.050781 193.429688 C 365.050781 92.621094 283.332031 10.902344 182.527344 10.902344 Z M 182.527344 10.902344 " clip-rule="nonzero"/></clipPath><clipPath id="6b2e507b1e"><path d="M 34.3125 22.386719 L 365.050781 22.386719 L 365.050781 364 L 34.3125 364 Z M 34.3125 22.386719 " clip-rule="nonzero"/></clipPath><clipPath id="e39afe686a"><path d="M 199.683594 22.386719 C 108.351562 22.386719 34.3125 98.789062 34.3125 193.039062 C 34.3125 287.285156 108.351562 363.691406 199.683594 363.691406 C 291.015625 363.691406 365.050781 287.285156 365.050781 193.039062 C 365.050781 98.789062 291.015625 22.386719 199.683594 22.386719 Z M 199.683594 22.386719 " clip-rule="nonzero"/></clipPath></defs><g clip-path="url(#b51c3d079f)"><g clip-path="url(#2782705a53)"><path fill="#4cff20" d="M 0 10.902344 L 365.050781 10.902344 L 365.050781 375.957031 L 0 375.957031 Z M 0 10.902344 " fill-opacity="1" fill-rule="nonzero"/></g></g><g clip-path="url(#6b2e507b1e)"><g clip-path="url(#e39afe686a)"><path fill="#000000" d="M 34.3125 22.386719 L 365.050781 22.386719 L 365.050781 363.460938 L 34.3125 363.460938 Z M 34.3125 22.386719 " fill-opacity="1" fill-rule="nonzero"/></g></g><g fill="#4cff20" fill-opacity="1"><g transform="translate(107.986183, 309.329725)"><g><path d="M 80.609375 0 L 138.40625 0 C 141.71875 0 144.65625 -2.9375 144.65625 -6.25 L 144.65625 -28.71875 C 144.65625 -32.03125 141.71875 -34.96875 138.40625 -34.96875 L 80.609375 -34.96875 C 77.296875 -34.96875 74.359375 -37.90625 74.359375 -41.21875 L 74.359375 -133.984375 C 74.359375 -137.296875 77.296875 -140.25 80.609375 -140.25 L 138.40625 -140.25 C 141.71875 -140.25 144.65625 -143.1875 144.65625 -146.5 L 144.65625 -168.953125 C 144.65625 -172.265625 141.71875 -175.21875 138.40625 -175.21875 L 80.609375 -175.21875 C 77.296875 -175.21875 74.359375 -178.15625 74.359375 -181.46875 L 74.359375 -239.265625 C 74.359375 -242.578125 71.40625 -245.515625 68.09375 -245.515625 L 45.640625 -245.515625 C 42.328125 -245.515625 39.390625 -242.578125 39.390625 -239.265625 L 39.390625 -181.46875 C 39.390625 -178.15625 36.4375 -175.21875 33.125 -175.21875 L 10.671875 -175.21875 C 7.359375 -175.21875 4.421875 -172.265625 4.421875 -168.953125 L 4.421875 -146.5 C 4.421875 -143.1875 7.359375 -140.25 10.671875 -140.25 L 33.125 -140.25 C 36.4375 -140.25 39.390625 -137.296875 39.390625 -133.984375 L 39.390625 -41.21875 C 39.390625 -37.90625 42.328125 -34.96875 45.640625 -34.96875 L 68.09375 -34.96875 C 71.40625 -34.96875 74.359375 -32.03125 74.359375 -28.71875 L 74.359375 -6.25 C 74.359375 -2.9375 77.296875 0 80.609375 0 Z M 80.609375 0 "/></g></g></g></svg>