<svg xmlns="http://www.w3.org/2000/svg" xmlns:xlink="http://www.w3.org/1999/xlink" width="600" zoomAndPan="magnify" viewBox="0 0 450 67.499998" height="90" preserveAspectRatio="xMidYMid meet" version="1.0"><defs><g/><clipPath id="7985bec565"><path d="M 3.21875 1.320312 L 255.1875 1.320312 L 255.1875 13.1875 L 3.21875 13.1875 Z M 3.21875 1.320312 " clip-rule="nonzero"/></clipPath><clipPath id="1a0ff40f02"><path d="M 262.359375 53.457031 L 341.574219 53.457031 L 341.574219 65.683594 L 262.359375 65.683594 Z M 262.359375 53.457031 " clip-rule="nonzero"/></clipPath></defs><g clip-path="url(#7985bec565)"><path fill="#4cff20" d="M 3.21875 1.320312 L 255.183594 1.320312 L 255.183594 13.1875 L 3.21875 13.1875 Z M 3.21875 1.320312 " fill-opacity="1" fill-rule="nonzero"/></g><g clip-path="url(#1a0ff40f02)"><path fill="#000000" d="M 262.359375 53.457031 L 341.578125 53.457031 L 341.578125 65.683594 L 262.359375 65.683594 Z M 262.359375 53.457031 " fill-opacity="1" fill-rule="nonzero"/></g><g fill="#ff00ff" fill-opacity="1"><g transform="translate(0.715222, 49.993795)"><g><path d="M 17.984375 0 L 17.984375 -28.765625 L 3.59375 -28.765625 L 3.59375 -35.96875 L 39.5625 -35.96875 L 39.5625 -28.765625 L 25.171875 -28.765625 L 25.171875 0 Z M 17.984375 0 "/></g></g></g><g fill="#ff00ff" fill-opacity="1"><g transform="translate(43.871447, 49.993795)"><g><path d="M 3.59375 0 L 3.59375 -28.765625 L 10.78125 -28.765625 L 10.78125 -14.390625 L 32.359375 -14.390625 L 32.359375 -28.765625 L 39.5625 -28.765625 L 39.5625 0 L 32.359375 0 L 32.359375 -7.1875 L 10.78125 -7.1875 L 10.78125 0 Z M 10.78125 -28.765625 L 10.78125 -35.96875 L 32.359375 -35.96875 L 32.359375 -28.765625 Z M 10.78125 -28.765625 "/></g></g></g><g fill="#ff00ff" fill-opacity="1"><g transform="translate(87.027672, 49.993795)"><g><path d="M 3.59375 0 L 3.59375 -35.96875 L 32.359375 -35.96875 L 32.359375 -28.765625 L 10.78125 -28.765625 L 10.78125 -14.390625 L 32.359375 -14.390625 L 32.359375 -7.1875 L 10.78125 -7.1875 L 10.78125 0 Z M 32.359375 0 L 32.359375 -7.1875 L 39.5625 -7.1875 L 39.5625 0 Z M 32.359375 -14.390625 L 32.359375 -28.765625 L 39.5625 -28.765625 L 39.5625 -14.390625 Z M 32.359375 -14.390625 "/></g></g></g><g fill="#ff00ff" fill-opacity="1"><g transform="translate(130.183898, 49.993795)"><g><path d="M 17.984375 0 L 17.984375 -28.765625 L 3.59375 -28.765625 L 3.59375 -35.96875 L 39.5625 -35.96875 L 39.5625 -28.765625 L 25.171875 -28.765625 L 25.171875 0 Z M 17.984375 0 "/></g></g></g><g fill="#ff00ff" fill-opacity="1"><g transform="translate(173.340123, 49.993795)"><g><path d="M 3.59375 0 L 3.59375 -28.765625 L 10.78125 -28.765625 L 10.78125 -14.390625 L 32.359375 -14.390625 L 32.359375 -28.765625 L 39.5625 -28.765625 L 39.5625 0 L 32.359375 0 L 32.359375 -7.1875 L 10.78125 -7.1875 L 10.78125 0 Z M 10.78125 -28.765625 L 10.78125 -35.96875 L 32.359375 -35.96875 L 32.359375 -28.765625 Z M 10.78125 -28.765625 "/></g></g></g><g fill="#ff00ff" fill-opacity="1"><g transform="translate(216.496348, 49.993795)"><g><path d="M 3.59375 0 L 3.59375 -35.96875 L 32.359375 -35.96875 L 32.359375 -28.765625 L 10.78125 -28.765625 L 10.78125 -14.390625 L 32.359375 -14.390625 L 32.359375 -7.1875 L 10.78125 -7.1875 L 10.78125 0 Z M 32.359375 0 L 32.359375 -7.1875 L 39.5625 -7.1875 L 39.5625 0 Z M 32.359375 -14.390625 L 32.359375 -28.765625 L 39.5625 -28.765625 L 39.5625 -14.390625 Z M 32.359375 -14.390625 "/></g></g></g><g fill="#00ffff" fill-opacity="1"><g transform="translate(-0.579028, 51.986765)"><g><path d="M 17.984375 0 L 17.984375 -28.765625 L 3.59375 -28.765625 L 3.59375 -35.96875 L 39.5625 -35.96875 L 39.5625 -28.765625 L 25.171875 -28.765625 L 25.171875 0 Z M 17.984375 0 "/></g></g></g><g fill="#00ffff" fill-opacity="1"><g transform="translate(42.577197, 51.986765)"><g><path d="M 3.59375 0 L 3.59375 -28.765625 L 10.78125 -28.765625 L 10.78125 -14.390625 L 32.359375 -14.390625 L 32.359375 -28.765625 L 39.5625 -28.765625 L 39.5625 0 L 32.359375 0 L 32.359375 -7.1875 L 10.78125 -7.1875 L 10.78125 0 Z M 10.78125 -28.765625 L 10.78125 -35.96875 L 32.359375 -35.96875 L 32.359375 -28.765625 Z M 10.78125 -28.765625 "/></g></g></g><g fill="#00ffff" fill-opacity="1"><g transform="translate(85.733422, 51.986765)"><g><path d="M 3.59375 0 L 3.59375 -35.96875 L 32.359375 -35.96875 L 32.359375 -28.765625 L 10.78125 -28.765625 L 10.78125 -14.390625 L 32.359375 -14.390625 L 32.359375 -7.1875 L 10.78125 -7.1875 L 10.78125 0 Z M 32.359375 0 L 32.359375 -7.1875 L 39.5625 -7.1875 L 39.5625 0 Z M 32.359375 -14.390625 L 32.359375 -28.765625 L 39.5625 -28.765625 L 39.5625 -14.390625 Z M 32.359375 -14.390625 "/></g></g></g><g fill="#00ffff" fill-opacity="1"><g transform="translate(128.889647, 51.986765)"><g><path d="M 17.984375 0 L 17.984375 -28.765625 L 3.59375 -28.765625 L 3.59375 -35.96875 L 39.5625 -35.96875 L 39.5625 -28.765625 L 25.171875 -28.765625 L 25.171875 0 Z M 17.984375 0 "/></g></g></g><g fill="#00ffff" fill-opacity="1"><g transform="translate(172.045873, 51.986765)"><g><path d="M 3.59375 0 L 3.59375 -28.765625 L 10.78125 -28.765625 L 10.78125 -14.390625 L 32.359375 -14.390625 L 32.359375 -28.765625 L 39.5625 -28.765625 L 39.5625 0 L 32.359375 0 L 32.359375 -7.1875 L 10.78125 -7.1875 L 10.78125 0 Z M 10.78125 -28.765625 L 10.78125 -35.96875 L 32.359375 -35.96875 L 32.359375 -28.765625 Z M 10.78125 -28.765625 "/></g></g></g><g fill="#00ffff" fill-opacity="1"><g transform="translate(215.202098, 51.986765)"><g><path d="M 3.59375 0 L 3.59375 -35.96875 L 32.359375 -35.96875 L 32.359375 -28.765625 L 10.78125 -28.765625 L 10.78125 -14.390625 L 32.359375 -14.390625 L 32.359375 -7.1875 L 10.78125 -7.1875 L 10.78125 0 Z M 32.359375 0 L 32.359375 -7.1875 L 39.5625 -7.1875 L 39.5625 0 Z M 32.359375 -14.390625 L 32.359375 -28.765625 L 39.5625 -28.765625 L 39.5625 -14.390625 Z M 32.359375 -14.390625 "/></g></g></g><g fill="#000000" fill-opacity="1"><g transform="translate(0.0680972, 50.99028)"><g><path d="M 17.984375 0 L 17.984375 -28.765625 L 3.59375 -28.765625 L 3.59375 -35.96875 L 39.5625 -35.96875 L 39.5625 -28.765625 L 25.171875 -28.765625 L 25.171875 0 Z M 17.984375 0 "/></g></g></g><g fill="#000000" fill-opacity="1"><g transform="translate(43.224322, 50.99028)"><g><path d="M 3.59375 0 L 3.59375 -28.765625 L 10.78125 -28.765625 L 10.78125 -14.390625 L 32.359375 -14.390625 L 32.359375 -28.765625 L 39.5625 -28.765625 L 39.5625 0 L 32.359375 0 L 32.359375 -7.1875 L 10.78125 -7.1875 L 10.78125 0 Z M 10.78125 -28.765625 L 10.78125 -35.96875 L 32.359375 -35.96875 L 32.359375 -28.765625 Z M 10.78125 -28.765625 "/></g></g></g><g fill="#000000" fill-opacity="1"><g transform="translate(86.380547, 50.99028)"><g><path d="M 3.59375 0 L 3.59375 -35.96875 L 32.359375 -35.96875 L 32.359375 -28.765625 L 10.78125 -28.765625 L 10.78125 -14.390625 L 32.359375 -14.390625 L 32.359375 -7.1875 L 10.78125 -7.1875 L 10.78125 0 Z M 32.359375 0 L 32.359375 -7.1875 L 39.5625 -7.1875 L 39.5625 0 Z M 32.359375 -14.390625 L 32.359375 -28.765625 L 39.5625 -28.765625 L 39.5625 -14.390625 Z M 32.359375 -14.390625 "/></g></g></g><g fill="#000000" fill-opacity="1"><g transform="translate(129.536773, 50.99028)"><g><path d="M 17.984375 0 L 17.984375 -28.765625 L 3.59375 -28.765625 L 3.59375 -35.96875 L 39.5625 -35.96875 L 39.5625 -28.765625 L 25.171875 -28.765625 L 25.171875 0 Z M 17.984375 0 "/></g></g></g><g fill="#000000" fill-opacity="1"><g transform="translate(172.692998, 50.99028)"><g><path d="M 3.59375 0 L 3.59375 -28.765625 L 10.78125 -28.765625 L 10.78125 -14.390625 L 32.359375 -14.390625 L 32.359375 -28.765625 L 39.5625 -28.765625 L 39.5625 0 L 32.359375 0 L 32.359375 -7.1875 L 10.78125 -7.1875 L 10.78125 0 Z M 10.78125 -28.765625 L 10.78125 -35.96875 L 32.359375 -35.96875 L 32.359375 -28.765625 Z M 10.78125 -28.765625 "/></g></g></g><g fill="#000000" fill-opacity="1"><g transform="translate(215.849223, 50.99028)"><g><path d="M 3.59375 0 L 3.59375 -35.96875 L 32.359375 -35.96875 L 32.359375 -28.765625 L 10.78125 -28.765625 L 10.78125 -14.390625 L 32.359375 -14.390625 L 32.359375 -7.1875 L 10.78125 -7.1875 L 10.78125 0 Z M 32.359375 0 L 32.359375 -7.1875 L 39.5625 -7.1875 L 39.5625 0 Z M 32.359375 -14.390625 L 32.359375 -28.765625 L 39.5625 -28.765625 L 39.5625 -14.390625 Z M 32.359375 -14.390625 "/></g></g></g><g fill="#ff00ff" fill-opacity="1"><g transform="translate(259.654454, 49.993795)"><g><path d="M 32.359375 -7.1875 L 32.359375 0 L 10.78125 0 L 10.78125 -7.1875 Z M 3.59375 -7.1875 L 3.59375 -35.96875 L 10.78125 -35.96875 L 10.78125 -7.1875 Z M 32.359375 -7.1875 L 32.359375 -35.96875 L 39.5625 -35.96875 L 39.5625 -7.1875 Z M 32.359375 -7.1875 "/></g></g></g><g fill="#ff00ff" fill-opacity="1"><g transform="translate(302.810679, 49.993795)"><g><path d="M 10.78125 -28.765625 L 10.78125 -21.578125 L 3.59375 -21.578125 L 3.59375 -28.765625 Z M 3.59375 0 L 3.59375 -7.1875 L 32.359375 -7.1875 L 32.359375 0 Z M 10.78125 -14.390625 L 10.78125 -21.578125 L 32.359375 -21.578125 L 32.359375 -14.390625 Z M 10.78125 -28.765625 L 10.78125 -35.96875 L 39.5625 -35.96875 L 39.5625 -28.765625 Z M 32.359375 -7.1875 L 32.359375 -14.390625 L 39.5625 -14.390625 L 39.5625 -7.1875 Z M 32.359375 -7.1875 "/></g></g></g><g fill="#00ffff" fill-opacity="1"><g transform="translate(258.360204, 51.986765)"><g><path d="M 32.359375 -7.1875 L 32.359375 0 L 10.78125 0 L 10.78125 -7.1875 Z M 3.59375 -7.1875 L 3.59375 -35.96875 L 10.78125 -35.96875 L 10.78125 -7.1875 Z M 32.359375 -7.1875 L 32.359375 -35.96875 L 39.5625 -35.96875 L 39.5625 -7.1875 Z M 32.359375 -7.1875 "/></g></g></g><g fill="#00ffff" fill-opacity="1"><g transform="translate(301.516429, 51.986765)"><g><path d="M 10.78125 -28.765625 L 10.78125 -21.578125 L 3.59375 -21.578125 L 3.59375 -28.765625 Z M 3.59375 0 L 3.59375 -7.1875 L 32.359375 -7.1875 L 32.359375 0 Z M 10.78125 -14.390625 L 10.78125 -21.578125 L 32.359375 -21.578125 L 32.359375 -14.390625 Z M 10.78125 -28.765625 L 10.78125 -35.96875 L 39.5625 -35.96875 L 39.5625 -28.765625 Z M 32.359375 -7.1875 L 32.359375 -14.390625 L 39.5625 -14.390625 L 39.5625 -7.1875 Z M 32.359375 -7.1875 "/></g></g></g><g fill="#4cff20" fill-opacity="1"><g transform="translate(259.007329, 50.99028)"><g><path d="M 32.359375 -7.1875 L 32.359375 0 L 10.78125 0 L 10.78125 -7.1875 Z M 3.59375 -7.1875 L 3.59375 -35.96875 L 10.78125 -35.96875 L 10.78125 -7.1875 Z M 32.359375 -7.1875 L 32.359375 -35.96875 L 39.5625 -35.96875 L 39.5625 -7.1875 Z M 32.359375 -7.1875 "/></g></g></g><g fill="#4cff20" fill-opacity="1"><g transform="translate(302.163554, 50.99028)"><g><path d="M 10.78125 -28.765625 L 10.78125 -21.578125 L 3.59375 -21.578125 L 3.59375 -28.765625 Z M 3.59375 0 L 3.59375 -7.1875 L 32.359375 -7.1875 L 32.359375 0 Z M 10.78125 -14.390625 L 10.78125 -21.578125 L 32.359375 -21.578125 L 32.359375 -14.390625 Z M 10.78125 -28.765625 L 10.78125 -35.96875 L 39.5625 -35.96875 L 39.5625 -28.765625 Z M 32.359375 -7.1875 L 32.359375 -14.390625 L 39.5625 -14.390625 L 39.5625 -7.1875 Z M 32.359375 -7.1875 "/></g></g></g></svg>